<svg xmlns="http://www.w3.org/2000/svg" version="1.1" xmlns:xlink="http://www.w3.org/1999/xlink" xmlns:svgjs="http://svgjs.com/svgjs" width="1280" height="1080" preserveAspectRatio="none" viewBox="0 0 1280 1080"><g mask="url(&quot;#SvgjsMask1151&quot;)" fill="none"><rect width="1280" height="1080" x="0" y="0" fill="rgba(133, 191, 231, 1)"></rect><path d="M0,462.326C100.494,459.124,214.112,518.846,295.515,459.83C377.325,400.518,342.373,267.119,391.245,178.676C446.394,78.875,604.6,27.932,597.044,-85.842C589.654,-197.104,436.967,-231.388,358.733,-310.844C286.996,-383.701,245.872,-483.422,156.562,-533.201C54.116,-590.301,-65.092,-637.299,-179.33,-610.743C-295.248,-583.796,-390.715,-493.693,-452.065,-391.716C-508.791,-297.424,-489.322,-181.511,-503.229,-72.353C-516.867,34.687,-569.019,141.696,-532.984,243.406C-495.957,347.918,-410.433,436.929,-307.871,479.056C-210.837,518.912,-104.847,465.667,0,462.326" fill="#61ace0"></path><path d="M1280 1700.807C1395.062 1696.6950000000002 1460.388 1567.1100000000001 1538.963 1482.955 1599.945 1417.643 1637.0729999999999 1340.1109999999999 1686.367 1265.5819999999999 1746.542 1174.601 1865.449 1105.485 1860.7 996.508 1855.998 888.5889999999999 1731.016 831.9970000000001 1663.79 747.444 1592.824 658.187 1559.626 529.863 1454.52 485.639 1347.454 440.59000000000003 1217.366 462.38800000000003 1114.49 516.323 1018.668 566.56 975.169 674.576 918.431 766.698 870.463 844.581 818.902 921.3489999999999 809.0260000000001 1012.284 799.345 1101.427 829.877 1187.0720000000001 863.761 1270.09 898.921 1356.2350000000001 944.204 1434.992 1008.8620000000001 1501.899 1088.366 1584.1689999999999 1165.665 1704.893 1280 1700.807" fill="#aad2ee"></path></g><defs><mask id="SvgjsMask1151"><rect width="1280" height="1080" fill="#ffffff"></rect></mask></defs></svg>