<svg xmlns="http://www.w3.org/2000/svg" version="1.1" xmlns:xlink="http://www.w3.org/1999/xlink" xmlns:svgjs="http://svgjs.com/svgjs" width="1280" height="1080" preserveAspectRatio="none" viewBox="0 0 1280 1080"><g mask="url(&quot;#SvgjsMask1310&quot;)" fill="none"><rect width="1280" height="1080" x="0" y="0" fill="rgba(233, 166, 64, 0.99)"></rect><path d="M0,554.266C112.161,588.473,248.505,603.345,344.146,535.501C439.712,467.71,427.102,323.859,475.338,217.08C523.308,110.89,627.15,26.407,626.758,-90.114C626.352,-210.849,552.275,-318.793,473.228,-410.055C394.17,-501.329,297.411,-587.053,178.439,-607.708C63.626,-627.641,-43.527,-560.482,-152.29,-518.651C-252.064,-480.278,-363.014,-455.953,-430.881,-373.361C-498.106,-291.55,-521.661,-180.184,-517.35,-74.384C-513.434,21.723,-460.973,106.026,-408.077,186.363C-361.724,256.762,-293.952,303.546,-231.349,359.986C-155.01,428.81,-98.312,524.283,0,554.266" fill="rgba(224, 145, 26, 0.99)"></path><path d="M1280 1538.748C1370.253 1552.335 1469.998 1544.201 1543.922 1490.671 1616.791 1437.905 1631.213 1339.299 1668.504 1257.424 1705.751 1175.646 1773.686 1099.787 1762.567 1010.617 1751.412 921.152 1673.52 858.111 1610.656 793.485 1551.058 732.217 1490.121 667.6859999999999 1407.54 645.64 1325.857 623.8340000000001 1243.048 654.6569999999999 1160.593 673.337 1072.466 693.302 980.571 703.345 909.052 758.572 828.594 820.702 755.46 902.045 735.371 1001.694 714.902 1103.228 736.073 1217.734 800.065 1299.179 860.665 1376.306 974.88 1374.412 1062.6399999999999 1418.219 1138.298 1455.9850000000001 1196.382 1526.16 1280 1538.748" fill="rgba(238, 186, 107, 0.99)"></path></g><defs><mask id="SvgjsMask1310"><rect width="1280" height="1080" fill="#ffffff"></rect></mask></defs></svg>